<svg width="122" height="32" viewBox="0 0 122 32" fill="none" xmlns="http://www.w3.org/2000/svg">
<path d="M0.702637 0.701172H9.96532L15.9413 13.1311H16.1803L22.1562 0.701172H31.4189L20.1842 21.6767V31.2979H11.9374V21.6767L0.702637 0.701172Z" fill="#DBC6EC"/>
<path d="M35.4189 31.2979V0.701172H57.4701V7.39421H43.7255V12.653H56.3347V19.3461H43.7255V24.6049H57.4103V31.2979H35.4189Z" fill="#DBC6EC"/>
<path d="M91.2303 15.9999C91.2303 19.4062 90.568 22.2796 89.2433 24.6202C87.9187 26.9508 86.1309 28.7186 83.8799 29.9238C81.629 31.119 79.1191 31.7166 76.3503 31.7166C73.5615 31.7166 71.0417 31.114 68.7907 29.9089C66.5498 28.6937 64.7669 26.9209 63.4423 24.5903C62.1276 22.2497 61.4702 19.3862 61.4702 15.9999C61.4702 12.5936 62.1276 9.72517 63.4423 7.39456C64.7669 5.05398 66.5498 3.28611 68.7907 2.09092C71.0417 0.885775 73.5615 0.283203 76.3503 0.283203C79.1191 0.283203 81.629 0.885775 83.8799 2.09092C86.1309 3.28611 87.9187 5.05398 89.2433 7.39456C90.568 9.72517 91.2303 12.5936 91.2303 15.9999ZM82.6848 15.9999C82.6848 14.1673 82.4407 12.6235 81.9527 11.3685C81.4746 10.1036 80.7625 9.14749 79.8163 8.5001C78.8801 7.84275 77.7247 7.51407 76.3503 7.51407C74.9758 7.51407 73.8155 7.84275 72.8693 8.5001C71.9331 9.14749 71.2209 10.1036 70.7329 11.3685C70.2548 12.6235 70.0158 14.1673 70.0158 15.9999C70.0158 17.8325 70.2548 19.3813 70.7329 20.6462C71.2209 21.9011 71.9331 22.8573 72.8693 23.5146C73.8155 24.162 74.9758 24.4857 76.3503 24.4857C77.7247 24.4857 78.8801 24.162 79.8163 23.5146C80.7625 22.8573 81.4746 21.9011 81.9527 20.6462C82.4407 19.3813 82.6848 17.8325 82.6848 15.9999Z" fill="#DBC6EC"/>
<path d="M121.703 0.701172V31.2979H114.771L103.716 15.2227H103.537V31.2979H95.23V0.701172H102.282L113.158 16.7167H113.397V0.701172H121.703Z" fill="#DBC6EC"/>
</svg>
