<svg width="119" height="32" viewBox="0 0 119 32" fill="none" xmlns="http://www.w3.org/2000/svg">
<path d="M28.7054 12.1753H20.2794C20.2196 11.4781 20.0603 10.8457 19.8013 10.2779C19.5523 9.71023 19.2037 9.22219 18.7555 8.81384C18.3173 8.39552 17.7844 8.07681 17.157 7.85769C16.5295 7.62861 15.8174 7.51407 15.0206 7.51407C13.6262 7.51407 12.4459 7.85271 11.4798 8.52998C10.5237 9.20725 9.79661 10.1783 9.29862 11.4432C8.81059 12.7081 8.56657 14.227 8.56657 15.9999C8.56657 17.8723 8.81557 19.441 9.31356 20.7059C9.82151 21.9609 10.5536 22.9071 11.5097 23.5445C12.4659 24.172 13.6162 24.4857 14.9608 24.4857C15.7277 24.4857 16.415 24.3911 17.0225 24.2018C17.6301 24.0026 18.1579 23.7188 18.6061 23.3503C19.0543 22.9818 19.4179 22.5385 19.6967 22.0206C19.9856 21.4928 20.1798 20.9001 20.2794 20.2428L28.7054 20.3026C28.6058 21.5973 28.2423 22.917 27.6148 24.2616C26.9874 25.5962 26.0959 26.8313 24.9406 27.9667C23.7952 29.0921 22.3759 29.9985 20.6828 30.6857C18.9896 31.373 17.0225 31.7166 14.7815 31.7166C11.9728 31.7166 9.453 31.114 7.22199 29.9089C5.00093 28.7037 3.24302 26.9308 1.94823 24.5903C0.663408 22.2497 0.0209961 19.3862 0.0209961 15.9999C0.0209961 12.5936 0.678348 9.72517 1.99305 7.39456C3.30776 5.05398 5.08061 3.28611 7.31162 2.09092C9.54264 0.885775 12.0326 0.283203 14.7815 0.283203C16.7137 0.283203 18.4916 0.547139 20.115 1.07501C21.7385 1.60289 23.1628 2.37478 24.3878 3.39068C25.6129 4.39663 26.5989 5.63664 27.3459 7.1107C28.0929 8.58476 28.5461 10.273 28.7054 12.1753Z" fill="#9D5ED0"/>
<path d="M31.7056 31.2979V0.701172H40.0121V12.653H51.0078V0.701172H59.3143V31.2979H51.0078V19.3461H40.0121V31.2979H31.7056Z" fill="#9D5ED0"/>
<path d="M71.2783 31.2979H62.3145L72.4138 0.701172H83.768L93.8673 31.2979H84.9035L78.2104 9.12723H77.9714L71.2783 31.2979ZM69.6051 19.2265H86.4572V25.4415H69.6051V19.2265Z" fill="#9D5ED0"/>
<path d="M96.8672 31.2979V0.701172H118.918V7.39421H105.174V12.653H117.783V19.3461H105.174V24.6049H118.859V31.2979H96.8672Z" fill="#9D5ED0"/>
</svg>
